<svg aria-hidden="true" style="position: absolute; width: 0; height: 0; overflow: hidden;" version="1.1" xmlns="http://www.w3.org/2000/svg" xmlns:xlink="http://www.w3.org/1999/xlink">
<defs>
<symbol id="icon-vs-code" viewBox="0 0 32 32">
<path fill="#29b6f6" style="fill: var(--color1, #29b6f6)" d="M29.333 7.407v17.187c0 0.847-0.527 1.6-1.32 1.88l-5.88 2.76 0.533-7.233v-12l-0.533-7.233 5.88 2.76c0.793 0.28 1.32 1.033 1.32 1.88z"></path>
<path fill="#0277bd" style="fill: var(--color2, #0277bd)" d="M6 22.597l16.667-12.597v-6.431c0-0.799-0.988-1.172-1.517-0.573l-18.045 16.497c-0.6 0.553-0.566 1.511 0.071 2.021 0 0 0.883 0.821 1.202 1.049 0.491 0.35 1.135 0.39 1.621 0.034z"></path>
<path fill="#0288d1" style="fill: var(--color3, #0288d1)" d="M6 9.403l16.667 12.597v6.431c0 0.799-0.988 1.172-1.517 0.573l-18.045-16.497c-0.6-0.553-0.566-1.511 0.071-2.021 0 0 0.883-0.821 1.202-1.049 0.491-0.35 1.135-0.39 1.621-0.034z"></path>
</symbol>
<symbol id="icon-flashlight" viewBox="0 0 32 32">
<path d="M10.031 0h11.938q0.494 0.131 0.719 0.531l0.188 0.5v5.063l-0.063 0.063v0.813l-0.063 0.063-0.063 0.813-0.438 1.688q-0.6 1.744-1.688 3v18.563q-0.113 0.481-0.469 0.719l-0.438 0.188h-7.313q-0.481-0.113-0.719-0.469l-0.188-0.438v-18.563q-0.819-0.963-1.375-2.188l-0.625-1.875-0.188-1-0.063-1.313-0.063-0.063v-5.063q0.125-0.625 0.594-0.906l0.313-0.125zM10.313 1.125v3.438h11.375v-3.438h-11.375zM10.313 5.688l0.063 1.625 0.25 1.25 0.25 0.75q0.625 1.563 1.688 2.813v15.313h6.875v-15.313q1.063-1.25 1.688-2.813l0.25-0.75 0.313-1.75v-1.125h-11.375zM12.563 28.563v2.313h6.875v-2.313h-6.875z"></path>
<path d="M15.781 12.563h0.438l0.563 0.125q0.706 0.262 1.094 0.844l0.375 0.813 0.063 0.563-0.188 0.813q-0.225 0.556-0.656 0.906l-1 0.5h-0.938q-0.819-0.212-1.281-0.781l-0.375-0.625-0.188-0.875q0.169-0.106 0.063-0.5l0.25-0.625 0.719-0.781 0.5-0.25 0.563-0.125zM15.688 13.75l-0.5 0.25-0.313 0.625q-0.063 0.625 0.188 0.938t0.75 0.438q0.563 0.063 0.875-0.188t0.438-0.625v-0.563l-0.313-0.625-0.438-0.25h-0.688z"></path>
</symbol>
</defs>
</svg>