<svg aria-hidden="true" style="position: absolute; width: 0; height: 0; overflow: hidden;" version="1.1" xmlns="http://www.w3.org/2000/svg" xmlns:xlink="http://www.w3.org/1999/xlink">
<defs>
<symbol id="icon-vs-code" viewBox="0 0 32 32">
<path fill="#29b6f6" style="fill: var(--color1, #29b6f6)" d="M29.333 7.407v17.187c0 0.847-0.527 1.6-1.32 1.88l-5.88 2.76 0.533-7.233v-12l-0.533-7.233 5.88 2.76c0.793 0.28 1.32 1.033 1.32 1.88z"></path>
<path fill="#0277bd" style="fill: var(--color2, #0277bd)" d="M6 22.597l16.667-12.597v-6.431c0-0.799-0.988-1.172-1.517-0.573l-18.045 16.497c-0.6 0.553-0.566 1.511 0.071 2.021 0 0 0.883 0.821 1.202 1.049 0.491 0.35 1.135 0.39 1.621 0.034z"></path>
<path fill="#0288d1" style="fill: var(--color3, #0288d1)" d="M6 9.403l16.667 12.597v6.431c0 0.799-0.988 1.172-1.517 0.573l-18.045-16.497c-0.6-0.553-0.566-1.511 0.071-2.021 0 0 0.883-0.821 1.202-1.049 0.491-0.35 1.135-0.39 1.621-0.034z"></path>
</symbol>
</defs>
</svg>